<svg viewBox="0 0 1200 400" xmlns="http://www.w3.org/2000/svg">
	<defs>
		<linearGradient id="bannerBg" x1="0%" y1="0%" x2="100%" y2="100%">
			<stop offset="0%" style="stop-color:#ecfdf5;stop-opacity:1" />
			<stop offset="50%" style="stop-color:#d1fae5;stop-opacity:1" />
			<stop offset="100%" style="stop-color:#a7f3d0;stop-opacity:1" />
		</linearGradient>
		<linearGradient id="stemGrad" x1="0%" y1="0%" x2="100%" y2="100%">
			<stop offset="0%" style="stop-color:#6ee7b7;stop-opacity:1" />
			<stop offset="50%" style="stop-color:#34d399;stop-opacity:1" />
			<stop offset="100%" style="stop-color:#10b981;stop-opacity:1" />
		</linearGradient>
		<linearGradient id="topArmGrad" x1="0%" y1="0%" x2="100%" y2="0%">
			<stop offset="0%" style="stop-color:#10b981;stop-opacity:1" />
			<stop offset="100%" style="stop-color:#059669;stop-opacity:1" />
		</linearGradient>
		<linearGradient id="bottomArmGrad" x1="0%" y1="100%" x2="100%" y2="0%">
			<stop offset="0%" style="stop-color:#047857;stop-opacity:1" />
			<stop offset="100%" style="stop-color:#10b981;stop-opacity:1" />
		</linearGradient>
		<linearGradient id="textGrad" x1="0%" y1="0%" x2="100%" y2="0%">
			<stop offset="0%" style="stop-color:#059669;stop-opacity:1" />
			<stop offset="50%" style="stop-color:#10b981;stop-opacity:1" />
			<stop offset="100%" style="stop-color:#047857;stop-opacity:1" />
		</linearGradient>
	</defs>
	<rect width="1200" height="400" fill="url(#bannerBg)"/>
	<circle cx="100" cy="80" r="60" fill="#6ee7b7" opacity="0.2"/>
	<circle cx="1100" cy="320" r="80" fill="#34d399" opacity="0.15"/>
	<circle cx="950" cy="100" r="50" fill="#10b981" opacity="0.2"/>
	<g transform="translate(200, 80) scale(0.6)">
		<rect x="0" y="0" width="55" height="240" rx="27.5" fill="url(#stemGrad)"/>
		<path d="M 65 65 L 200 5 Q 220 -2 230 15 L 240 35 Q 245 50 230 58 L 80 115 Q 63 122 60 105 Z" fill="url(#topArmGrad)"/>
		<path d="M 60 135 L 80 125 L 230 182 Q 245 190 240 205 L 230 225 Q 220 242 200 235 L 65 175 Q 55 170 60 155 Z" fill="url(#bottomArmGrad)"/>
		<circle cx="240" cy="25" r="20" fill="#10b981"/>
		<circle cx="245" cy="215" r="24" fill="#059669"/>
	</g>
	<text x="420" y="240" font-family="Arial, sans-serif" font-size="120" font-weight="800" fill="url(#textGrad)" letter-spacing="-2">Krubles</text>
</svg>
