<svg viewBox="0 0 750 450" xmlns="http://www.w3.org/2000/svg">
  <defs>
    <linearGradient id="stemGradient" x1="0%" y1="0%" x2="100%" y2="100%">
      <stop offset="0%" style="stop-color:#6ee7b7;stop-opacity:1" />
      <stop offset="50%" style="stop-color:#34d399;stop-opacity:1" />
      <stop offset="100%" style="stop-color:#10b981;stop-opacity:1" />
    </linearGradient>
    <linearGradient id="topArmGradient" x1="0%" y1="0%" x2="100%" y2="0%">
      <stop offset="0%" style="stop-color:#10b981;stop-opacity:1" />
      <stop offset="100%" style="stop-color:#059669;stop-opacity:1" />
    </linearGradient>
    <linearGradient id="bottomArmGradient" x1="0%" y1="100%" x2="100%" y2="0%">
      <stop offset="0%" style="stop-color:#047857;stop-opacity:1" />
      <stop offset="100%" style="stop-color:#10b981;stop-opacity:1" />
    </linearGradient>
    <!-- Blue to green gradient for A -->
    <linearGradient id="blueGreenGradient" x1="0%" y1="0%" x2="100%" y2="100%">
      <stop offset="0%" style="stop-color:#1e40af;stop-opacity:1" />
      <stop offset="25%" style="stop-color:#2563eb;stop-opacity:1" />
      <stop offset="75%" style="stop-color:#10b981;stop-opacity:1" />
      <stop offset="100%" style="stop-color:#059669;stop-opacity:1" />
    </linearGradient>
  </defs>
  
  <!-- Background circles -->
  <circle cx="80" cy="120" r="40" fill="#a7f3d0" opacity="0.3"/>
  <circle cx="670" cy="320" r="50" fill="#dbeafe" opacity="0.25"/>
  <circle cx="300" cy="140" r="35" fill="#34d399" opacity="0.2"/>
  
  <!-- K Letter (your original) -->
  <rect x="85" y="100" width="55" height="240" rx="27.5" fill="url(#stemGradient)"/>
  <path d="M 150 165 L 285 105 Q 305 98 315 115 L 325 135 Q 330 150 315 158 L 165 215 Q 148 222 145 205 Z" fill="url(#topArmGradient)"/>
  <path d="M 145 235 L 165 225 L 315 282 Q 330 290 325 305 L 315 325 Q 305 342 285 335 L 150 275 Q 140 270 145 255 Z" fill="url(#bottomArmGradient)"/>
  <circle cx="325" cy="125" r="20" fill="#10b981"/>
  <circle cx="330" cy="315" r="24" fill="#059669"/>
  <circle cx="70" cy="180" r="14" fill="#6ee7b7" opacity="0.8"/>
  <circle cx="65" cy="260" r="16" fill="#34d399" opacity="0.75"/>
  <circle cx="190" cy="140" r="6" fill="#d1fae5"/>
  <circle cx="200" cy="300" r="7" fill="#a7f3d0"/>
  <circle cx="250" cy="220" r="5" fill="#ecfdf5"/>
  <circle cx="340" cy="220" r="10" fill="#6ee7b7" opacity="0.6"/>
  <circle cx="60" cy="340" r="12" fill="#34d399" opacity="0.5"/>
  
  <!-- A Letter - Using rotated rectangles like K structure -->
  <g transform="translate(350, 100)">
    <!-- Left leg of A (rotated rect) -->
    <rect x="20" y="0" width="55" height="240" rx="27.5" fill="url(#blueGreenGradient)" transform="rotate(15 47.5 120)"/>
    
    <!-- Right leg of A (rotated rect) -->
    <rect x="125" y="0" width="55" height="240" rx="27.5" fill="url(#blueGreenGradient)" transform="rotate(-15 152.5 120)"/>
    
    <!-- Crossbar -->
    <rect x="40" y="130" width="120" height="45" rx="22.5" fill="url(#blueGreenGradient)"/>
    
    <!-- Decorative circles -->
    <circle cx="185" cy="25" r="20" fill="#2563eb"/>
    <circle cx="190" cy="215" r="24" fill="#10b981"/>
    <circle cx="5" cy="80" r="14" fill="#60a5fa" opacity="0.8"/>
    <circle cx="100" cy="260" r="7" fill="#10b981"/>
  </g>
</svg>