<svg viewBox="0 0 400 400" xmlns="http://www.w3.org/2000/svg">
	<defs>
		<linearGradient id="stemGradient" x1="0%" y1="0%" x2="100%" y2="100%">
			<stop offset="0%" style="stop-color:#6ee7b7;stop-opacity:1" />
			<stop offset="50%" style="stop-color:#34d399;stop-opacity:1" />
			<stop offset="100%" style="stop-color:#10b981;stop-opacity:1" />
		</linearGradient>
		<linearGradient id="topArmGradient" x1="0%" y1="0%" x2="100%" y2="0%">
			<stop offset="0%" style="stop-color:#10b981;stop-opacity:1" />
			<stop offset="100%" style="stop-color:#059669;stop-opacity:1" />
		</linearGradient>
		<linearGradient id="bottomArmGradient" x1="0%" y1="100%" x2="100%" y2="0%">
			<stop offset="0%" style="stop-color:#047857;stop-opacity:1" />
			<stop offset="100%" style="stop-color:#10b981;stop-opacity:1" />
		</linearGradient>
	</defs>
	<circle cx="80" cy="100" r="40" fill="#a7f3d0" opacity="0.3"/>
	<circle cx="320" cy="300" r="50" fill="#6ee7b7" opacity="0.25"/>
	<circle cx="300" cy="120" r="35" fill="#34d399" opacity="0.2"/>
	<rect x="85" y="80" width="55" height="240" rx="27.5" fill="url(#stemGradient)"/>
	<path d="M 150 145 L 285 85 Q 305 78 315 95 L 325 115 Q 330 130 315 138 L 165 195 Q 148 202 145 185 Z" fill="url(#topArmGradient)"/>
	<path d="M 145 215 L 165 205 L 315 262 Q 330 270 325 285 L 315 305 Q 305 322 285 315 L 150 255 Q 140 250 145 235 Z" fill="url(#bottomArmGradient)"/>
	<circle cx="325" cy="105" r="20" fill="#10b981"/>
	<circle cx="330" cy="295" r="24" fill="#059669"/>
	<circle cx="70" cy="160" r="14" fill="#6ee7b7" opacity="0.8"/>
	<circle cx="65" cy="240" r="16" fill="#34d399" opacity="0.75"/>
	<circle cx="190" cy="120" r="6" fill="#d1fae5"/>
	<circle cx="200" cy="280" r="7" fill="#a7f3d0"/>
	<circle cx="250" cy="200" r="5" fill="#ecfdf5"/>
	<circle cx="340" cy="200" r="10" fill="#6ee7b7" opacity="0.6"/>
	<circle cx="60" cy="320" r="12" fill="#34d399" opacity="0.5"/>
</svg>
